<svg xmlns="http://www.w3.org/2000/svg" xmlns:xlink="http://www.w3.org/1999/xlink" version="1.1" width="256" height="256" viewBox="0 0 256 256" xml:space="preserve">
<desc>Created with Fabric.js 1.7.22</desc>
<defs>
</defs>
<g transform="translate(128 128) scale(0.72 0.72)" style="">
	<g style="stroke: none; stroke-width: 0; stroke-dasharray: none; stroke-linecap: butt; stroke-linejoin: miter; stroke-miterlimit: 10; fill: none; fill-rule: nonzero; opacity: 1;" transform="translate(-175.05 -175.05000000000004) scale(3.89 3.89)" >
	<path d="M 44.925 31.589 c -0.168 0 -0.336 -0.042 -0.487 -0.126 c -3.375 -1.883 -8.634 -6.31 -10.82 -9.108 c -4.626 -5.922 -5.579 -12.937 -2.265 -16.68 c 1.589 -1.794 3.819 -2.83 6.28 -2.915 c 2.568 -0.102 5.121 0.875 7.293 2.729 c 2.171 -1.854 4.728 -2.832 7.293 -2.729 c 2.461 0.085 4.691 1.12 6.279 2.915 c 3.313 3.743 2.361 10.758 -2.265 16.68 c -2.188 2.799 -7.446 7.226 -10.821 9.108 C 45.261 31.547 45.093 31.589 44.925 31.589 z M 37.956 4.754 c -0.085 0 -0.169 0.001 -0.254 0.004 C 35.794 4.824 34.071 5.62 32.85 7 c -2.631 2.973 -1.624 9.045 2.344 14.124 c 1.919 2.457 6.581 6.419 9.731 8.31 c 3.15 -1.89 7.812 -5.853 9.732 -8.31 C 58.625 16.044 59.632 9.972 57 7 l 0 0 c -1.221 -1.379 -2.943 -2.175 -4.851 -2.241 c -2.288 -0.079 -4.606 0.916 -6.523 2.799 c -0.389 0.383 -1.014 0.383 -1.402 0 C 42.379 5.743 40.163 4.754 37.956 4.754 z" style="stroke: none; stroke-width: 1; stroke-dasharray: none; stroke-linecap: butt; stroke-linejoin: miter; stroke-miterlimit: 10; fill: rgb(0,0,0); fill-rule: nonzero; opacity: 1;" transform=" matrix(1 0 0 1 0 0) " stroke-linecap="round" />
	<path d="M 89 81.376 H 1 c -0.552 0 -1 -0.447 -1 -1 V 60.4 c 0 -5.792 4.713 -10.505 10.505 -10.505 h 68.99 C 85.287 49.896 90 54.608 90 60.4 v 19.976 C 90 80.929 89.553 81.376 89 81.376 z M 2 79.376 h 86 V 60.4 c 0 -4.689 -3.815 -8.505 -8.505 -8.505 h -68.99 C 5.815 51.896 2 55.711 2 60.4 V 79.376 z" style="stroke: none; stroke-width: 1; stroke-dasharray: none; stroke-linecap: butt; stroke-linejoin: miter; stroke-miterlimit: 10; fill: rgb(0,0,0); fill-rule: nonzero; opacity: 1;" transform=" matrix(1 0 0 1 0 0) " stroke-linecap="round" />
	<path d="M 42.417 52.101 H 14.078 c -0.552 0 -1 -0.447 -1 -1 c 0 -6.976 5.675 -12.651 12.651 -12.651 h 5.036 c 6.976 0 12.651 5.675 12.651 12.651 C 43.417 51.653 42.969 52.101 42.417 52.101 z M 15.125 50.101 h 26.246 c -0.506 -5.406 -5.069 -9.651 -10.605 -9.651 H 25.73 C 20.194 40.449 15.63 44.695 15.125 50.101 z" style="stroke: none; stroke-width: 1; stroke-dasharray: none; stroke-linecap: butt; stroke-linejoin: miter; stroke-miterlimit: 10; fill: rgb(0,0,0); fill-rule: nonzero; opacity: 1;" transform=" matrix(1 0 0 1 0 0) " stroke-linecap="round" />
	<path d="M 75.922 52.101 H 47.583 c -0.553 0 -1 -0.447 -1 -1 c 0 -6.976 5.676 -12.651 12.651 -12.651 h 5.036 c 6.976 0 12.651 5.675 12.651 12.651 C 76.922 51.653 76.475 52.101 75.922 52.101 z M 48.63 50.101 h 26.245 c -0.506 -5.406 -5.068 -9.651 -10.604 -9.651 h -5.036 C 53.698 40.449 49.136 44.695 48.63 50.101 z" style="stroke: none; stroke-width: 1; stroke-dasharray: none; stroke-linecap: butt; stroke-linejoin: miter; stroke-miterlimit: 10; fill: rgb(0,0,0); fill-rule: nonzero; opacity: 1;" transform=" matrix(1 0 0 1 0 0) " stroke-linecap="round" />
	<path d="M 89 64.862 H 1 c -0.552 0 -1 -0.447 -1 -1 s 0.448 -1 1 -1 h 88 c 0.553 0 1 0.447 1 1 S 89.553 64.862 89 64.862 z" style="stroke: none; stroke-width: 1; stroke-dasharray: none; stroke-linecap: butt; stroke-linejoin: miter; stroke-miterlimit: 10; fill: rgb(0,0,0); fill-rule: nonzero; opacity: 1;" transform=" matrix(1 0 0 1 0 0) " stroke-linecap="round" />
	<path d="M 8.208 87.246 H 6.871 C 3.082 87.246 0 84.164 0 80.376 c 0 -0.553 0.448 -1 1 -1 h 13.078 c 0.552 0 1 0.447 1 1 C 15.078 84.164 11.996 87.246 8.208 87.246 z M 2.103 81.376 c 0.463 2.207 2.425 3.87 4.768 3.87 h 1.337 c 2.343 0 4.305 -1.663 4.768 -3.87 H 2.103 z" style="stroke: none; stroke-width: 1; stroke-dasharray: none; stroke-linecap: butt; stroke-linejoin: miter; stroke-miterlimit: 10; fill: rgb(0,0,0); fill-rule: nonzero; opacity: 1;" transform=" matrix(1 0 0 1 0 0) " stroke-linecap="round" />
	<path d="M 83.13 87.246 h -1.338 c -3.788 0 -6.87 -3.082 -6.87 -6.87 c 0 -0.553 0.447 -1 1 -1 H 89 c 0.553 0 1 0.447 1 1 C 90 84.164 86.918 87.246 83.13 87.246 z M 77.025 81.376 c 0.462 2.207 2.424 3.87 4.767 3.87 h 1.338 c 2.343 0 4.305 -1.663 4.767 -3.87 H 77.025 z" style="stroke: none; stroke-width: 1; stroke-dasharray: none; stroke-linecap: butt; stroke-linejoin: miter; stroke-miterlimit: 10; fill: rgb(0,0,0); fill-rule: nonzero; opacity: 1;" transform=" matrix(1 0 0 1 0 0) " stroke-linecap="round" />
	<path d="M 4.408 54.112 c -0.552 0 -1 -0.447 -1 -1 V 32.86 c 0 -3.82 2.172 -7.212 5.59 -8.824 v -2.958 c -1.27 -0.946 -2.039 -2.441 -2.039 -4.028 c 0 -2.779 2.261 -5.041 5.041 -5.041 s 5.041 2.261 5.041 5.041 c 0 1.587 -0.769 3.082 -2.039 4.028 v 2.013 h 21.571 c 0.552 0 1 0.448 1 1 s -0.448 1 -1 1 H 14.002 c -0.552 0 -1 -0.448 -1 -1 v -3.55 c 0 -0.358 0.191 -0.688 0.501 -0.867 c 0.962 -0.554 1.537 -1.535 1.537 -2.624 c 0 -1.677 -1.364 -3.041 -3.041 -3.041 s -3.041 1.364 -3.041 3.041 c 0 1.089 0.575 2.07 1.537 2.624 c 0.31 0.178 0.501 0.509 0.501 0.867 v 4.154 c 0 0.412 -0.253 0.782 -0.637 0.932 c -3.009 1.172 -4.954 4.012 -4.954 7.234 v 20.252 C 5.408 53.665 4.96 54.112 4.408 54.112 z" style="stroke: none; stroke-width: 1; stroke-dasharray: none; stroke-linecap: butt; stroke-linejoin: miter; stroke-miterlimit: 10; fill: rgb(0,0,0); fill-rule: nonzero; opacity: 1;" transform=" matrix(1 0 0 1 0 0) " stroke-linecap="round" />
	<path d="M 85.592 54.112 c -0.553 0 -1 -0.447 -1 -1 V 32.86 c 0 -3.222 -1.944 -6.062 -4.953 -7.234 c -0.384 -0.149 -0.637 -0.52 -0.637 -0.932 V 20.54 c 0 -0.358 0.191 -0.688 0.501 -0.867 c 0.963 -0.554 1.538 -1.535 1.538 -2.624 c 0 -1.677 -1.364 -3.041 -3.041 -3.041 s -3.041 1.364 -3.041 3.041 c 0 1.089 0.575 2.069 1.538 2.624 c 0.31 0.178 0.501 0.509 0.501 0.867 v 3.55 c 0 0.552 -0.447 1 -1 1 H 53.277 c -0.553 0 -1 -0.448 -1 -1 s 0.447 -1 1 -1 h 21.721 v -2.013 c -1.271 -0.946 -2.039 -2.441 -2.039 -4.028 c 0 -2.779 2.262 -5.041 5.041 -5.041 s 5.041 2.261 5.041 5.041 c 0 1.587 -0.769 3.082 -2.039 4.028 v 2.958 c 3.418 1.611 5.59 5.003 5.59 8.824 v 20.252 C 86.592 53.665 86.145 54.112 85.592 54.112 z" style="stroke: none; stroke-width: 1; stroke-dasharray: none; stroke-linecap: butt; stroke-linejoin: miter; stroke-miterlimit: 10; fill: rgb(0,0,0); fill-rule: nonzero; opacity: 1;" transform=" matrix(1 0 0 1 0 0) " stroke-linecap="round" />
</g>
</g>
</svg>